<?xml version="1.0" encoding="utf-8"?>
<!-- Generator: Adobe Illustrator 27.1.1, SVG Export Plug-In . SVG Version: 6.00 Build 0)  -->
<svg version="1.1" id="Capa_1" xmlns="http://www.w3.org/2000/svg" xmlns:xlink="http://www.w3.org/1999/xlink" x="0px" y="0px"
	 viewBox="0 0 300 79.1" style="enable-background:new 0 0 300 79.1;" xml:space="preserve">
<style type="text/css">
	.st0{fill:#004996;}
	.st1{fill:#E73137;}
</style>
<g>
	<path class="st0" d="M225.1,18.3l-10.7,9.5c-4.7-4-10.9-5.8-17.2-4.3c-5.8,1.4-11.2,7.4-12.5,13.2c-1.5,7.6,1.4,14.4,7.7,18.7
		c4,2.6,9.3,3.3,14.2,2.3c2.9-0.7,5.4-2.5,7.8-4.6l12.3,7.5c-1.4,2.4-4.5,5.7-7.1,7c-10,6.6-25.7,6.8-35.6-0.3
		c-9.8-7.2-15-17.6-14.2-29.9c1-10.5,7.4-20.5,17.2-25.6C199.2,5.4,216,7.9,225.1,18.3"/>
	<path class="st0" d="M167.2,18.3l-10.7,9.5c-4.7-4-10.9-5.8-17.2-4.3c-5.8,1.5-11.2,7.4-12.5,13.2c-1.5,7.6,1.5,14.4,7.7,18.7
		c4,2.6,9.3,3.3,14.2,2.3c2.9-0.7,5.4-2.5,7.8-4.6l12.3,7.5c-1.4,2.4-4.5,5.7-7.1,7c-10,6.6-25.7,6.8-35.6-0.3
		c-9.8-7.2-15-17.6-14.2-29.9c1-10.5,7.4-20.5,17.2-25.6C141.3,5.4,158.1,7.9,167.2,18.3"/>
	<polygon class="st1" points="74.3,47.1 52.2,8.5 93.7,8.5 	"/>
	<polygon class="st0" points="82.5,72.4 67.5,72.4 98.9,8.5 116.3,8.5 	"/>
	<path class="st0" d="M28.5,8.5c8.5,0,16.3,1.6,21.7,9.7c4,8,3.3,20.1-2.3,27.2c-6.6,7.1-17.4,5.9-27,6l0,21h-16V8.5H28.5z
		 M21.1,21.9v15.6c4.7-0.1,10.9,1.1,13.7-3.5c1.1-2.3,0.9-5.7,0.2-8.2C32.5,20.5,26,22.3,21.1,21.9"/>
	<path class="st0" d="M295.7,72.4l-17.5,0l-4.7-10.9h-22.7L247,72.3h-17.4l23-63.9h18.2L295.7,72.4z M269.4,47.8L262,28l-6.4,19.8
		L269.4,47.8z"/>
</g>
</svg>
