<?xml version="1.0" encoding="utf-8"?>
<!-- Generator: Adobe Illustrator 23.0.3, SVG Export Plug-In . SVG Version: 6.00 Build 0)  -->
<svg version="1.1" id="Layer_1" xmlns="http://www.w3.org/2000/svg" xmlns:xlink="http://www.w3.org/1999/xlink" x="0px" y="0px"
	 viewBox="0 0 149 150" style="enable-background:new 0 0 149 150;" xml:space="preserve">
<style type="text/css">
	.st0{fill:#D4217B;}
</style>
<g>
	<g>
		<g>
			<path class="st0" d="M73.5,5C59.4,5,46,9.2,34.7,16.9c0,0-0.9,0.6-2.3,1.6c-0.1,0.1-0.3,0.2-0.4,0.3c-0.5,0.4-1.1,0.8-1.7,1.4
				c-0.1,0.1-0.2,0.2-0.3,0.3l0,0c-3.1,2.6-7.3,6.4-10.6,10.8l0,0C9.7,43.5,4.5,58.5,4.5,74.2c0,17.8,6.7,34.7,18.9,47.6
				c0.3,0.2,0.5,0.3,0.8,0.5s0.5,0.3,0.8,0.5s0.6,0.3,0.9,0.5c0.3,0.1,0.5,0.3,0.8,0.4c0.3,0.2,0.6,0.3,0.9,0.4s0.5,0.3,0.8,0.4
				s0.6,0.3,0.9,0.4s0.5,0.3,0.8,0.4s0.6,0.2,0.9,0.4c0.3,0.1,0.6,0.2,0.8,0.3c0.3,0.1,0.6,0.2,0.9,0.3c0.3,0.1,0.6,0.2,0.9,0.3
				c0.3,0.1,0.6,0.2,0.9,0.3c0.3,0.1,0.6,0.2,0.9,0.3c0.3,0.1,0.6,0.2,0.9,0.3c0.3,0.1,0.6,0.2,0.9,0.3c0.3,0.1,0.6,0.2,0.9,0.2
				c0.3,0.1,0.6,0.2,0.9,0.2c0.3,0.1,0.6,0.2,1,0.2c0.3,0.1,0.6,0.1,0.9,0.2c0.3,0.1,0.7,0.1,1,0.2c0.3,0.1,0.6,0.1,0.9,0.2
				c0.3,0.1,0.7,0.1,1,0.2c0.3,0,0.6,0.1,0.9,0.1c0.4,0,0.7,0.1,1,0.1s0.6,0.1,0.8,0.1c0.4,0,0.7,0.1,1.1,0.1c0.3,0,0.5,0.1,0.8,0.1
				c0.4,0,0.9,0,1.3,0.1c0.2,0,0.4,0,0.6,0c0.6,0,1.3,0,1.9,0c7.2,0,14.2-1.4,20.9-4.1c7.4-3,13.9-7.5,19.4-13.3
				c1.8-1.9,3.5-4,5-6.1c0.4-0.5,0.7-1.1,1.1-1.6c0.1-0.2,0.2-0.3,0.3-0.5c0.3-0.4,0.5-0.8,0.8-1.2c0.1-0.2,0.2-0.3,0.3-0.5
				c0.3-0.5,0.6-1.1,0.9-1.7c0-0.1,0.1-0.1,0.1-0.2c0.3-0.5,0.5-1,0.8-1.5c0.1-0.2,0.2-0.3,0.3-0.5c0.2-0.4,0.4-0.9,0.6-1.3
				c0.1-0.1,0.1-0.3,0.2-0.4c0.3-0.6,0.5-1.1,0.7-1.7c-1.3,1.9-2.9,3.7-4.6,5.4c-6.9,6.7-15.9,10.3-25.4,10.3s-18.6-3.7-25.4-10.3
				c-7-6.6-11-15.5-11.3-25.1c0-0.3,0-0.6,0-0.9v-0.4c0-0.4,0-0.9,0-1.3l0,0c0.1-2.6,0.3-5.1,0.7-7.6c0,0,0,0,0-0.1
				c0.1-0.6,0.2-1.3,0.3-1.9c0-0.1,0-0.3,0.1-0.4c0.1-0.5,0.2-1,0.3-1.5c0.1-0.3,0.1-0.5,0.2-0.8c0.1-0.3,0.1-0.6,0.2-0.9
				c0.1-0.4,0.2-0.9,0.4-1.3c0.1-0.2,0.1-0.5,0.2-0.7c0.1-0.5,0.3-1,0.5-1.5c0.1-0.2,0.1-0.4,0.2-0.6c0.2-0.5,0.4-1,0.5-1.6
				c0-0.1,0.1-0.3,0.2-0.4c0.2-0.5,0.4-1.1,0.6-1.6c0-0.1,0.1-0.2,0.1-0.3c0.2-0.6,0.5-1.1,0.7-1.7c0-0.1,0.1-0.2,0.1-0.3
				c0.3-0.6,0.5-1.1,0.8-1.7l0.1-0.2c0.3-0.6,0.6-1.1,0.9-1.7c0-0.1,0.1-0.1,0.1-0.2c0.3-0.6,0.6-1.1,1-1.7c0,0,0-0.1,0.1-0.1
				c0.3-0.6,0.7-1.2,1.1-1.7c0,0,0-0.1,0.1-0.1c0.4-0.6,0.8-1.2,1.2-1.7s0.8-1.1,1.2-1.6c0.1-0.2,0.3-0.3,0.4-0.5
				c0.3-0.4,0.5-0.7,0.8-1c0.2-0.2,0.3-0.4,0.5-0.6c0.3-0.3,0.5-0.6,0.8-0.9c0.2-0.2,0.4-0.4,0.5-0.6c0.3-0.3,0.5-0.6,0.8-0.9
				c0.2-0.2,0.4-0.4,0.6-0.6c0.3-0.3,0.5-0.5,0.8-0.8c0.2-0.2,0.4-0.4,0.6-0.6c0.3-0.3,0.6-0.5,0.8-0.8c0.2-0.2,0.4-0.4,0.6-0.6
				c0.3-0.3,0.6-0.5,0.9-0.8c0.2-0.2,0.4-0.4,0.6-0.5c0.3-0.3,0.6-0.5,1-0.8c0.2-0.2,0.4-0.3,0.6-0.5c0.4-0.3,0.7-0.6,1.1-0.9
				c0.1-0.1,0.3-0.2,0.4-0.3c0.5-0.4,1.1-0.8,1.6-1.1c0.1-0.1,0.2-0.1,0.2-0.1c0.5-0.3,0.9-0.6,1.4-0.9c0.2-0.1,0.4-0.2,0.6-0.4
				c0.4-0.2,0.7-0.5,1.1-0.7c0.2-0.1,0.4-0.3,0.7-0.4c0.1-0.1,0.2-0.1,0.3-0.2c1.7-0.9,5.4-2.9,10-4.5h0.1c0.2-0.1,0.4-0.1,0.6-0.2
				s0.5-0.1,0.7-0.2s0.4-0.1,0.6-0.2s0.5-0.1,0.7-0.2s0.4-0.1,0.6-0.2s0.5-0.1,0.7-0.2s0.4-0.1,0.6-0.2s0.5-0.1,0.7-0.2
				s0.4-0.1,0.7-0.1c0.2-0.1,0.5-0.1,0.7-0.2c0.2,0,0.4-0.1,0.6-0.1s0.5-0.1,0.7-0.1s0.4-0.1,0.6-0.1s0.5-0.1,0.7-0.1
				s0.4-0.1,0.6-0.1c0.3,0,0.5-0.1,0.8-0.1c0.2,0,0.4-0.1,0.6-0.1c0.3,0,0.5-0.1,0.8-0.1c0.2,0,0.4,0,0.6-0.1c0.3,0,0.5,0,0.8-0.1
				c0.2,0,0.4,0,0.6,0c0.3,0,0.6,0,0.8-0.1c0.2,0,0.4,0,0.5,0c0.3,0,0.6,0,0.9,0c0.1,0,0.3,0,0.4,0c0.5,0,0.9,0,1.4,0
				c0.6,0,1.2,0,1.8,0c0.2,0,0.3,0,0.5,0c0.5,0,0.9,0,1.4,0.1c0.1,0,0.3,0,0.4,0c0.6,0,1.2,0.1,1.8,0.2c0.1,0,0.3,0,0.4,0
				c0.5,0.1,0.9,0.1,1.4,0.2c0.2,0,0.3,0,0.5,0.1c0.6,0.1,1.1,0.2,1.6,0.3h0.1c0.6,0.1,1.2,0.2,1.7,0.3c0.2,0,0.3,0.1,0.5,0.1
				c0.5,0.1,0.9,0.2,1.4,0.3c0.1,0,0.3,0.1,0.4,0.1c0.6,0.1,1.1,0.3,1.7,0.4c0.1,0,0.2,0.1,0.3,0.1c0.5,0.1,0.9,0.3,1.4,0.4
				c0.2,0.1,0.3,0.1,0.5,0.2c0.5,0.2,1,0.3,1.5,0.5c0.1,0,0.1,0,0.2,0.1c0.5,0.2,1.1,0.4,1.6,0.6c0.2,0.1,0.3,0.1,0.5,0.2
				s0.4,0.2,0.6,0.2C104.7,10.4,89.6,5,73.5,5"/>
			<path class="st0" d="M75.5,145c14.1,0,27.5-4.2,38.8-11.9c0,0,0.9-0.6,2.3-1.6c0.1-0.1,0.3-0.2,0.4-0.3c0.5-0.4,1.1-0.8,1.7-1.4
				c0.1-0.1,0.2-0.2,0.3-0.3l0,0c3.1-2.6,7.3-6.4,10.6-10.8l0,0c9.6-12.2,14.9-27.2,14.9-42.9c0-17.8-6.7-34.7-18.9-47.6
				c-0.3-0.2-0.5-0.3-0.8-0.5s-0.5-0.3-0.8-0.5s-0.6-0.3-0.9-0.5c-0.3-0.1-0.5-0.3-0.8-0.4c-0.3-0.2-0.6-0.3-0.9-0.4
				s-0.5-0.3-0.8-0.4s-0.6-0.3-0.9-0.4s-0.5-0.3-0.8-0.4s-0.6-0.2-0.9-0.4c-0.3-0.1-0.6-0.2-0.8-0.3c-0.3-0.1-0.6-0.2-0.9-0.3
				c-0.3-0.1-0.6-0.2-0.9-0.3c-0.3-0.1-0.6-0.2-0.9-0.3c-0.3-0.1-0.6-0.2-0.9-0.3c-0.3-0.1-0.6-0.2-0.9-0.3
				c-0.3-0.1-0.6-0.2-0.9-0.3c-0.3-0.1-0.6-0.2-0.9-0.2c-0.3-0.1-0.6-0.2-0.9-0.2c-0.3-0.1-0.6-0.2-1-0.2c-0.3-0.1-0.6-0.1-0.9-0.2
				s-0.7-0.1-1-0.2s-0.6-0.1-0.9-0.2s-0.7-0.1-1-0.2c-0.3,0-0.6-0.1-0.9-0.1c-0.4,0-0.7-0.1-1-0.1s-0.6-0.1-0.8-0.1
				c-0.4,0-0.7-0.1-1.1-0.1c-0.3,0-0.5-0.1-0.8-0.1c-0.4,0-0.9,0-1.3-0.1c-0.2,0-0.4,0-0.6,0c-0.6,0-1.3,0-1.9,0
				c-7.2,0-14.2,1.4-20.9,4.1c-7.4,3-13.9,7.5-19.4,13.3c-1.8,1.9-3.5,4-5,6.1c-0.4,0.5-0.7,1.1-1.1,1.6c-0.1,0.2-0.2,0.3-0.3,0.5
				c-0.3,0.4-0.5,0.8-0.8,1.2c-0.1,0.2-0.2,0.3-0.3,0.5c-0.3,0.5-0.6,1.1-0.9,1.7c0,0.1-0.1,0.1-0.1,0.2c-0.3,0.5-0.5,1-0.8,1.5
				c-0.1,0.2-0.2,0.3-0.3,0.5c-0.2,0.4-0.4,0.9-0.6,1.3c-0.1,0.1-0.1,0.3-0.2,0.4c-0.3,0.6-0.5,1.1-0.7,1.7c1.3-1.9,2.9-3.7,4.6-5.4
				c7-6.7,16-10.3,25.5-10.3s18.6,3.7,25.4,10.3c6.9,6.6,10.8,15.5,11.1,25.1c0,0.3,0,0.6,0,0.9v0.4c0,0.4,0,0.9,0,1.3l0,0
				c-0.1,2.6-0.3,5.1-0.7,7.6v0.1c-0.1,0.6-0.2,1.3-0.3,1.9c0,0.1,0,0.3-0.1,0.4c-0.1,0.5-0.2,1-0.3,1.5c-0.1,0.3-0.1,0.5-0.2,0.8
				s-0.1,0.6-0.2,0.9c-0.1,0.4-0.2,0.9-0.4,1.3c-0.1,0.2-0.1,0.5-0.2,0.7c-0.1,0.5-0.3,1-0.5,1.5c-0.1,0.2-0.1,0.4-0.2,0.6
				c-0.2,0.5-0.4,1-0.5,1.6c0,0.1-0.1,0.3-0.2,0.4c-0.2,0.5-0.4,1.1-0.6,1.6c0,0.1-0.1,0.2-0.1,0.3c-0.2,0.6-0.5,1.1-0.7,1.7
				c0,0.1-0.1,0.2-0.1,0.3c-0.3,0.6-0.5,1.1-0.8,1.7l-0.1,0.2c-0.3,0.6-0.6,1.1-0.9,1.7c0,0.1-0.1,0.1-0.1,0.2
				c-0.3,0.6-0.6,1.1-1,1.7c0,0,0,0.1-0.1,0.1c-0.3,0.6-0.7,1.2-1.1,1.7c0,0,0,0.1-0.1,0.1c-0.4,0.6-0.8,1.2-1.2,1.7
				c-0.4,0.5-0.8,1.1-1.2,1.6c-0.1,0.2-0.3,0.3-0.4,0.5c-0.3,0.4-0.5,0.7-0.8,1c-0.2,0.2-0.3,0.4-0.5,0.6c-0.3,0.3-0.5,0.6-0.8,0.9
				c-0.2,0.2-0.4,0.4-0.5,0.6c-0.3,0.3-0.5,0.6-0.8,0.9c-0.2,0.2-0.4,0.4-0.6,0.6c-0.3,0.3-0.5,0.5-0.8,0.8
				c-0.2,0.2-0.4,0.4-0.6,0.6c-0.3,0.3-0.6,0.5-0.8,0.8c-0.2,0.2-0.4,0.4-0.6,0.6c-0.3,0.3-0.6,0.5-0.9,0.8
				c-0.2,0.2-0.4,0.4-0.6,0.5c-0.3,0.3-0.6,0.5-1,0.8c-0.2,0.2-0.4,0.3-0.6,0.5c-0.4,0.3-0.7,0.6-1.1,0.9c-0.1,0.1-0.3,0.2-0.4,0.3
				c-0.5,0.4-1.1,0.8-1.6,1.1c-0.1,0-0.2,0.1-0.2,0.1c-0.5,0.3-0.9,0.6-1.4,0.9c-0.2,0.1-0.4,0.2-0.6,0.4c-0.4,0.2-0.7,0.5-1.1,0.7
				c-0.2,0.1-0.4,0.3-0.7,0.4c-0.1,0.1-0.2,0.1-0.3,0.2c-1.7,0.9-5.4,2.9-10,4.5h-0.1c-0.2,0.1-0.4,0.1-0.6,0.2
				c-0.2,0.1-0.5,0.1-0.7,0.2c-0.2,0.1-0.4,0.1-0.6,0.2c-0.2,0.1-0.5,0.1-0.7,0.2c-0.2,0.1-0.4,0.1-0.6,0.2
				c-0.2,0.1-0.5,0.1-0.7,0.2c-0.2,0.1-0.4,0.1-0.6,0.2c-0.2,0.1-0.5,0.1-0.7,0.2c-0.2,0-0.4,0.1-0.7,0.1c-0.2,0.1-0.5,0.1-0.7,0.2
				c-0.2,0-0.4,0.1-0.6,0.1s-0.5,0.1-0.7,0.1s-0.4,0.1-0.6,0.1c-0.2,0-0.5,0.1-0.7,0.1s-0.4,0.1-0.6,0.1c-0.3,0-0.5,0.1-0.8,0.1
				c-0.2,0-0.4,0.1-0.6,0.1c-0.3,0-0.5,0.1-0.8,0.1c-0.2,0-0.4,0-0.6,0.1c-0.3,0-0.5,0-0.8,0.1c-0.2,0-0.4,0-0.6,0
				c-0.3,0-0.6,0-0.8,0.1c-0.2,0-0.4,0-0.5,0c-0.3,0-0.6,0-0.9,0c-0.1,0-0.3,0-0.4,0c-0.5,0-0.9,0-1.4,0c-0.6,0-1.2,0-1.8,0
				c-0.2,0-0.3,0-0.5,0c-0.5,0-0.9,0-1.4-0.1c-0.1,0-0.3,0-0.4,0c-0.6,0-1.2-0.1-1.8-0.2c-0.1,0-0.3,0-0.4,0
				c-0.5-0.1-0.9-0.1-1.4-0.2c-0.2,0-0.3,0-0.5-0.1c-0.6-0.1-1.1-0.2-1.6-0.3h-0.1c-0.6-0.1-1.2-0.2-1.7-0.3c-0.2,0-0.3-0.1-0.5-0.1
				c-0.5-0.1-0.9-0.2-1.4-0.3c-0.1,0-0.3-0.1-0.4-0.1c-0.6-0.1-1.1-0.3-1.7-0.4c-0.1,0-0.2-0.1-0.3-0.1c-0.5-0.1-0.9-0.3-1.4-0.4
				c-0.2-0.1-0.3-0.1-0.5-0.2c-0.5-0.2-1-0.3-1.5-0.5c-0.1,0-0.1,0-0.2-0.1c-0.5-0.2-1.1-0.4-1.6-0.6c-0.2-0.1-0.3-0.1-0.5-0.2
				c-0.2-0.1-0.4-0.2-0.6-0.2C44.3,139.6,59.4,145,75.5,145"/>
		</g>
	</g>
</g>
</svg>
